<svg width="25" height="24" viewBox="0 0 25 24" fill="none" xmlns="http://www.w3.org/2000/svg">
    <path
        d="M13.7599 3.59998L5.54995 12.29C5.20495 12.6996 4.97387 13.1928 4.87995 13.72L4.50995 16.961C4.46144 17.213 4.47723 17.4731 4.55584 17.7174C4.63445 17.9617 4.77336 18.1822 4.95973 18.3586C5.1461 18.535 5.37392 18.6616 5.62215 18.7267C5.87038 18.7918 6.131 18.7932 6.37995 18.731L9.59995 18.181C10.1243 18.0659 10.6058 17.806 10.9899 17.431L19.1999 8.74098C20.6199 7.24098 21.2599 5.53098 19.0499 3.44098C16.8499 1.36998 15.1799 2.09998 13.7599 3.59998Z"
        stroke="#E50049" stroke-width="1.5" stroke-linecap="round" stroke-linejoin="round" />
    <path
        d="M12.3901 5.04999C12.5998 6.39084 13.2487 7.62412 14.2352 8.55623C15.2216 9.48835 16.4896 10.0665 17.8401 10.2"
        stroke="#E50049" stroke-width="1.5" stroke-linecap="round" stroke-linejoin="round" />
    <path d="M3.5 22H21.5" stroke="#E50049" stroke-width="1.5" stroke-linecap="round"
        stroke-linejoin="round" />
</svg>
