<svg width="24" height="25" viewBox="0 0 24 25" fill="none" xmlns="http://www.w3.org/2000/svg">
    <mask id="mask0_14975_18559" style="mask-type:alpha" maskUnits="userSpaceOnUse" x="1" y="1"
        width="22" height="23">
        <ellipse cx="12.0002" cy="12.5" rx="11.0002" ry="11" fill="#D9D9D9" />
    </mask>
    <g mask="url(#mask0_14975_18559)">
        <rect y="0.5" width="24.0004" height="24" fill="#FF616D" />
    </g>
    <path
        d="M11.4474 6.56C11.6217 6.48324 11.8101 6.44369 12.0006 6.44385C12.1909 6.44389 12.3791 6.48361 12.5532 6.56045C12.7273 6.63729 12.8835 6.74958 13.0118 6.89015C13.1401 7.03072 13.2377 7.19649 13.2983 7.37688C13.359 7.55727 13.3814 7.74832 13.3641 7.93785L12.8181 13.9468C12.7968 14.1489 12.7015 14.3359 12.5506 14.4718C12.3996 14.6077 12.2037 14.683 12.0006 14.683C11.7974 14.683 11.6015 14.6077 11.4505 14.4718C11.2996 14.3359 11.2043 14.1489 11.1831 13.9468L10.6356 7.93785C10.6182 7.7482 10.6407 7.55702 10.7014 7.37653C10.7622 7.19603 10.8599 7.03019 10.9883 6.8896C11.1168 6.74901 11.2732 6.63675 11.4474 6.56Z"
        fill="#F7F7FF" />
    <path
        d="M13.3091 17.2476C13.3091 17.9703 12.7233 18.5561 12.0006 18.5561C11.278 18.5561 10.6921 17.9703 10.6921 17.2476C10.6921 16.5249 11.278 15.9391 12.0006 15.9391C12.7233 15.9391 13.3091 16.5249 13.3091 17.2476Z"
        fill="#F7F7FF" />
</svg>
