<svg width="24" height="24" viewBox="0 0 24 24" fill="none" xmlns="http://www.w3.org/2000/svg">
    <path
        d="M15.1199 10.31C15.1199 10.9271 14.9369 11.5303 14.5941 12.0434C14.2512 12.5565 13.764 12.9564 13.1939 13.1925C12.6238 13.4287 11.9964 13.4904 11.3912 13.3701C10.786 13.2497 10.2301 12.9525 9.79371 12.5162C9.35737 12.0798 9.06022 11.5239 8.93983 10.9187C8.81945 10.3135 8.88123 9.68614 9.11738 9.11603C9.35353 8.54592 9.75342 8.05865 10.2665 7.71582C10.7796 7.37299 11.3828 7.19 11.9999 7.19C12.8274 7.19 13.6209 7.51872 14.2061 8.10383C14.7912 8.68894 15.1199 9.48253 15.1199 10.31Z"
        stroke="#0049E8" stroke-width="1.5" />
    <path
        d="M3.61971 8.49C5.58971 -0.169998 18.4197 -0.159997 20.3797 8.5C21.5297 13.58 18.3697 17.88 15.5997 20.54C14.6318 21.4735 13.3395 21.9952 11.9947 21.9952C10.65 21.9952 9.35763 21.4735 8.38971 20.54C5.62971 17.88 2.46971 13.57 3.61971 8.49Z"
        stroke="#0049E8" stroke-width="1.5" />
</svg>
