<svg width="30" height="48" viewBox="0 0 30 48" fill="none" xmlns="http://www.w3.org/2000/svg">
    <path
        d="M15 0C23.2843 0 30 6.71573 30 15C30 22.8024 24.0428 29.2132 16.4287 29.9326V45.7139C16.4287 46.5028 15.789 47.1426 15 47.1426C14.211 47.1426 13.5713 46.5028 13.5713 45.7139V29.9326C5.95718 29.2132 0 22.8024 0 15C1.9329e-07 6.71573 6.71573 1.93277e-07 15 0ZM15 10C12.2386 10 10 12.2386 10 15C10 17.7614 12.2386 20 15 20C17.7614 20 20 17.7614 20 15C20 12.2386 17.7614 10 15 10Z"
        fill="#007AFF" />
</svg>
