<svg width="24" height="24" viewBox="0 0 24 24" fill="none" xmlns="http://www.w3.org/2000/svg">
    <path
        d="M12.1598 10.87C12.05 10.86 11.9396 10.86 11.8298 10.87C10.666 10.8267 9.56567 10.3285 8.76542 9.48239C7.96518 8.63629 7.52895 7.50991 7.55057 6.34552C7.57219 5.18112 8.04992 4.07172 8.88103 3.2559C9.71213 2.44009 10.8302 1.98303 11.9948 1.98303C13.1594 1.98303 14.2775 2.44009 15.1086 3.2559C15.9397 4.07172 16.4174 5.18112 16.439 6.34552C16.4607 7.50991 16.0244 8.63629 15.2242 9.48239C14.4239 10.3285 13.3236 10.8267 12.1598 10.87Z"
        stroke="#292D32" stroke-width="1.5" stroke-linecap="round" stroke-linejoin="round" />
    <path
        d="M7.16021 14.561C4.74021 16.181 4.74021 18.821 7.16021 20.431C8.67348 21.3341 10.4029 21.811 12.1652 21.811C13.9275 21.811 15.657 21.3341 17.1702 20.431C19.5902 18.811 19.5902 16.171 17.1702 14.561C15.6553 13.6626 13.9265 13.1885 12.1652 13.1885C10.4039 13.1885 8.67513 13.6626 7.16021 14.561Z"
        stroke="#292D32" stroke-width="1.5" stroke-linecap="round" stroke-linejoin="round" />
</svg>
